<?xml version="1.0" standalone="no"?>
<!DOCTYPE svg PUBLIC "-//W3C//DTD SVG 20010904//EN"
 "http://www.w3.org/TR/2001/REC-SVG-20010904/DTD/svg10.dtd">
<svg version="1.0" xmlns="http://www.w3.org/2000/svg"
 width="850.000000pt" height="850.000000pt" viewBox="0 0 850.000000 850.000000"
 preserveAspectRatio="xMidYMid meet">
<metadata>
Created by potrace 1.15, written by Peter Selinger 2001-2017
</metadata>
<g transform="translate(0.000000,850.000000) scale(0.100000,-0.100000)"
fill="#000000" stroke="none">
<path d="M3955 7939 c-879 -65 -1732 -449 -2383 -1074 -350 -336 -624 -728
-837 -1200 -94 -208 -181 -485 -230 -730 -197 -991 -1 -1983 557 -2814 224
-333 524 -649 867 -912 126 -97 178 -129 211 -129 25 0 31 5 38 32 11 42 47
51 63 16 9 -22 17 -24 67 -23 53 1 56 2 69 32 7 17 17 34 22 37 15 10 38 -4
50 -30 20 -44 34 -17 28 53 -7 71 7 96 58 109 40 10 116 -4 139 -25 12 -10 38
-21 59 -24 l37 -6 0 49 c0 63 13 70 105 58 39 -5 84 -9 101 -8 27 0 32 -4 37
-28 6 -32 29 -43 71 -35 25 5 26 7 26 85 0 84 9 112 44 140 25 20 101 24 112
6 5 -7 8 -53 9 -102 0 -104 9 -116 72 -100 l38 9 5 63 c5 67 20 88 52 71 14
-8 18 -22 18 -68 0 -32 6 -74 14 -92 l14 -34 4 35 c2 25 8 36 23 38 42 8 45
19 45 152 0 96 3 130 14 139 23 19 116 43 154 39 l37 -3 3 60 c2 32 8 65 14
72 15 19 311 18 326 0 6 -7 13 -62 14 -123 l3 -109 50 -5 c44 -4 50 -8 53 -30
2 -14 8 -29 12 -34 13 -13 42 64 41 108 -1 52 13 66 65 66 56 0 121 -25 160
-62 26 -24 39 -29 70 -26 39 3 39 3 42 50 4 55 14 61 102 56 53 -3 55 -4 63
-38 5 -19 12 -74 16 -122 6 -91 11 -104 35 -95 12 5 14 33 9 184 -5 163 -4
181 13 197 13 14 26 17 56 12 22 -4 48 -1 60 5 19 10 20 17 14 71 -9 91 -2 98
97 98 45 0 88 -4 95 -9 9 -5 13 -22 10 -47 -3 -37 -1 -39 26 -42 16 -2 39 2
52 9 19 9 39 8 111 -10 48 -11 91 -21 96 -21 4 0 7 90 7 200 0 182 2 200 18
209 10 5 68 8 128 7 88 -3 118 -8 152 -25 80 -41 81 -40 84 114 2 79 7 136 13
138 7 1 12 -261 15 -763 3 -421 6 -766 8 -768 1 -2 12 -2 25 0 l22 3 3 763 c2
667 4 762 17 762 13 0 15 -95 17 -762 l3 -763 25 0 25 0 5 765 c3 500 8 765
15 765 7 0 12 -265 15 -765 l5 -765 25 0 25 0 5 759 c4 595 8 760 18 764 6 2
12 -2 12 -10 0 -7 1 -350 3 -763 l2 -750 28 -3 27 -3 0 765 c0 440 4 767 9
770 5 3 72 -15 150 -40 78 -25 149 -44 159 -42 11 2 19 16 22 43 3 22 9 45 13
52 6 10 65 30 187 63 19 5 74 21 121 35 109 32 143 31 199 -2 41 -24 55 -27
147 -27 56 -1 105 -5 110 -9 4 -5 9 -158 11 -340 2 -183 6 -334 9 -337 3 -3
10 3 17 14 6 10 59 91 117 180 249 378 395 695 502 1086 40 143 61 237 77 330
6 36 15 90 20 120 47 278 47 802 0 1080 -5 30 -14 84 -20 120 -26 154 -81 364
-142 545 -308 905 -995 1688 -1876 2136 -456 232 -957 371 -1467 409 -159 11
-467 11 -630 -1z m1553 -441 c7 -7 12 -21 12 -33 0 -12 -5 -26 -12 -33 -7 -7
-21 -12 -33 -12 -12 0 -26 5 -33 12 -7 7 -12 21 -12 33 0 12 5 26 12 33 7 7
21 12 33 12 12 0 26 -5 33 -12z m286 -329 c34 -40 41 -72 26 -110 -38 -91
-157 -92 -196 -1 -29 71 21 142 101 142 36 0 48 -5 69 -31z m-734 -134 c0 -18
17 -20 22 -3 6 17 98 -10 98 -28 0 -8 3 -14 8 -15 4 0 20 -2 35 -3 16 -1 31
-6 35 -12 4 -6 14 -13 24 -17 9 -3 22 -18 30 -34 7 -15 26 -34 41 -41 15 -7
27 -20 27 -28 0 -7 5 -14 10 -14 17 0 87 -156 106 -236 16 -65 16 -77 3 -85
-12 -7 -11 -9 4 -9 18 0 25 -45 7 -52 -6 -2 -6 -27 0 -68 10 -68 4 -106 -28
-200 -20 -57 -60 -141 -71 -150 -4 -3 -12 -17 -18 -32 -7 -16 -17 -28 -23 -28
-5 0 -10 -7 -10 -15 0 -8 -4 -15 -10 -15 -5 0 -10 -7 -10 -15 0 -8 -4 -15 -10
-15 -5 0 -10 -7 -10 -15 0 -9 -7 -18 -15 -21 -8 -4 -15 -13 -15 -20 0 -8 -7
-17 -15 -20 -8 -4 -15 -12 -15 -20 0 -8 -9 -19 -20 -26 -11 -7 -20 -17 -20
-23 0 -6 -12 -22 -27 -36 -16 -14 -33 -33 -39 -44 -6 -10 -19 -23 -29 -29 -24
-14 -37 -27 -51 -51 -6 -11 -22 -22 -35 -23 -31 -5 -47 -19 -51 -44 -2 -13
-15 -24 -38 -32 -22 -7 -36 -19 -38 -31 -5 -26 -31 -55 -50 -55 -18 0 -52 -29
-52 -44 0 -14 -51 -66 -66 -66 -6 0 -14 -7 -18 -15 -3 -8 -14 -15 -25 -15 -10
0 -21 -9 -24 -20 -3 -11 -14 -20 -25 -20 -11 0 -22 -9 -25 -20 -3 -12 -14 -20
-26 -20 -12 0 -21 -6 -21 -15 0 -9 -12 -21 -27 -28 -16 -6 -32 -17 -36 -24 -4
-7 -15 -13 -22 -13 -8 0 -15 -4 -15 -9 0 -27 -111 -67 -122 -43 -1 4 -24 18
-50 32 -27 13 -48 28 -48 32 0 5 -7 8 -15 8 -8 0 -15 4 -15 9 0 5 -11 12 -25
15 -14 4 -25 11 -25 16 0 6 -6 10 -13 10 -7 0 -22 8 -33 18 -10 9 -31 23 -46
31 -16 8 -28 18 -28 23 0 4 -5 8 -10 8 -11 0 -24 10 -61 43 -10 9 -24 17 -29
17 -5 0 -10 7 -10 15 0 8 -8 15 -19 15 -10 0 -21 9 -24 20 -3 12 -14 20 -26
20 -14 0 -25 9 -31 25 -6 16 -17 25 -31 25 -12 0 -23 8 -26 19 -3 11 -15 21
-26 23 -12 2 -26 13 -32 24 -17 35 -36 54 -53 54 -25 0 -112 91 -112 116 0 15
-11 27 -36 39 -20 9 -39 25 -41 35 -3 10 -11 21 -19 24 -8 3 -14 15 -14 26 0
11 -7 20 -15 20 -8 0 -15 9 -15 20 0 11 -7 20 -16 20 -10 0 -31 34 -58 93 -52
111 -75 189 -58 195 17 5 15 22 -3 22 -8 0 -15 9 -15 20 0 11 3 20 8 20 4 0 8
25 9 55 1 31 -2 55 -7 55 -6 0 -10 14 -10 30 0 20 5 30 15 30 18 0 20 27 3 32
-24 8 66 278 93 278 5 0 9 7 9 15 0 8 4 15 9 15 5 0 11 9 14 20 3 11 17 24 31
30 14 5 26 17 26 27 0 17 37 63 52 63 4 0 17 9 28 20 11 11 27 20 35 20 8 0
15 4 15 9 0 17 105 54 153 55 26 0 47 3 47 8 0 4 9 8 20 8 11 0 20 -4 20 -10
0 -5 11 -10 25 -10 14 0 25 5 25 10 0 6 9 10 20 10 11 0 20 -7 20 -15 0 -18
17 -20 22 -3 4 10 14 10 49 0 59 -17 139 -53 139 -64 0 -4 7 -8 15 -8 9 0 18
-7 21 -15 4 -8 11 -15 17 -15 15 0 87 -71 87 -86 0 -7 7 -14 15 -18 8 -3 15
-12 15 -21 0 -8 5 -15 10 -15 6 0 10 -7 10 -15 0 -8 4 -15 8 -15 16 0 43 -60
37 -83 -3 -12 4 -4 16 18 12 22 25 42 29 45 4 3 10 15 14 28 4 12 12 22 17 22
5 0 9 7 9 15 0 8 5 15 10 15 6 0 10 7 10 15 0 8 5 15 12 15 17 0 48 31 48 48
0 21 30 52 50 52 10 0 20 8 22 18 3 9 22 26 44 37 21 11 42 24 45 28 8 12 140
57 167 57 12 0 22 -3 22 -7 0 -5 25 -6 55 -5 30 2 55 8 55 13 0 5 11 9 25 9
16 0 25 -6 25 -15z m-3120 -190 c17 -20 5 -45 -20 -45 -23 0 -35 22 -26 45 7
19 30 19 46 0z m4265 -85 c0 -18 -6 -26 -23 -28 -24 -4 -38 18 -28 44 3 9 15
14 28 12 17 -2 23 -10 23 -28z m493 3 c52 -32 51 -118 -1 -157 -40 -30 -93
-25 -129 12 -41 41 -42 91 -4 131 41 43 82 47 134 14z m-4457 -27 c19 -8 45
-26 59 -41 24 -25 25 -34 32 -183 3 -86 14 -249 23 -362 9 -113 21 -257 26
-320 16 -211 23 -776 9 -880 -25 -200 -72 -347 -158 -495 -55 -94 -156 -199
-229 -238 -45 -24 -62 -28 -120 -25 l-68 3 3 29 c2 17 12 42 23 57 10 15 19
30 19 35 0 4 11 30 24 58 28 61 56 147 56 175 0 11 5 23 10 26 6 3 10 21 10
39 0 18 3 36 7 40 4 3 8 27 9 51 2 25 6 51 10 57 22 36 22 808 0 913 -4 17 -9
77 -11 135 -3 58 -9 166 -15 240 -6 74 -13 222 -15 328 -5 189 -5 193 19 230
42 67 128 118 237 141 4 0 22 -5 40 -13z m-732 -221 c15 -14 25 -38 28 -67 4
-37 1 -49 -22 -76 -23 -27 -33 -32 -72 -32 -55 0 -78 12 -98 50 -19 37 -19 63
0 100 32 62 114 74 164 25z m-226 -266 c38 -19 57 -52 57 -97 0 -54 -12 -77
-50 -97 -44 -23 -76 -18 -115 16 -31 27 -35 37 -35 79 0 42 4 52 35 79 37 32
71 39 108 20z m5477 -329 c11 -11 20 -25 20 -32 0 -18 -31 -48 -51 -48 -17 0
-49 35 -49 52 0 11 38 48 50 48 6 0 19 -9 30 -20z m623 -130 c47 -53 33 -137
-30 -169 -66 -34 -143 15 -143 91 0 50 13 74 53 99 42 26 84 18 120 -21z
m-5916 -520 c43 -26 56 -54 50 -104 -15 -107 -143 -131 -192 -36 -28 53 -15
100 38 138 39 27 62 28 104 2z m5702 -195 c42 -49 41 -87 -3 -131 -43 -43 -90
-46 -135 -8 -27 22 -31 32 -31 74 0 42 4 52 31 74 47 40 98 36 138 -9z m-5581
-107 c18 -18 14 -53 -8 -73 -18 -17 -21 -17 -45 -1 -27 18 -31 36 -15 67 12
21 50 25 68 7z m-781 -51 c13 -13 26 -39 29 -58 11 -71 -32 -121 -107 -123
-34 -1 -46 5 -70 32 -89 99 54 243 148 149z m4482 -223 c99 -34 113 -57 152
-244 5 -25 13 -65 19 -90 6 -25 17 -81 25 -125 8 -44 18 -100 24 -125 15 -73
28 -139 46 -230 17 -92 26 -135 45 -220 12 -52 32 -150 45 -215 3 -16 10 -46
15 -65 5 -19 16 -66 25 -105 46 -209 133 -424 227 -564 68 -101 70 -98 64 85
-5 153 -9 207 -36 434 -7 58 -14 123 -16 145 -5 53 -20 140 -33 193 -22 87
-32 129 -47 207 -8 44 -19 98 -23 120 -10 48 -47 237 -55 280 -3 17 -9 50 -15
75 -8 38 -23 121 -36 195 -2 11 -9 38 -15 60 -30 104 -22 131 49 161 53 22 69
20 168 -23 59 -25 88 -82 114 -223 5 -30 14 -73 19 -95 5 -22 14 -62 20 -90 6
-27 18 -86 26 -130 16 -84 26 -137 43 -220 6 -27 17 -84 25 -125 9 -41 19 -93
24 -115 5 -22 19 -85 32 -140 12 -55 26 -108 31 -117 5 -10 9 -26 9 -35 1 -41
90 -269 142 -363 17 -30 69 -112 116 -182 83 -125 85 -128 67 -148 -20 -22
-99 -28 -133 -11 -9 5 -34 17 -56 27 -90 44 -276 250 -329 365 -24 53 -43 66
-33 22 12 -50 25 -276 19 -343 -5 -75 -18 -116 -46 -147 -17 -19 -30 -22 -88
-22 -38 1 -71 5 -75 10 -3 5 -14 9 -25 9 -10 0 -19 3 -19 8 0 4 -18 15 -40 24
-21 10 -44 27 -50 38 -6 11 -17 20 -24 20 -13 0 -71 64 -128 141 -15 20 -43
67 -61 104 l-34 67 -12 -34 c-58 -154 -92 -204 -198 -288 -7 -6 -19 -10 -28
-10 -8 0 -15 -4 -15 -10 0 -5 -11 -10 -24 -10 -14 0 -28 -5 -31 -10 -4 -6 -16
-8 -26 -5 -11 4 -26 1 -34 -5 -18 -15 -166 -6 -235 14 -35 10 -113 49 -128 63
-7 7 -18 13 -25 13 -17 0 -143 135 -172 184 -65 111 -86 213 -87 418 0 232 11
295 76 427 25 52 47 70 129 109 127 60 237 77 301 47 110 -53 196 -227 196
-399 0 -40 -7 -93 -16 -119 -16 -46 -86 -137 -107 -137 -6 0 -18 -7 -27 -15
-10 -9 -55 -20 -109 -27 -105 -13 -106 -14 -67 -102 62 -141 170 -249 282
-285 39 -13 45 -12 107 18 71 34 109 74 151 157 52 105 53 135 10 284 -20 71
-30 110 -44 190 -7 36 -16 74 -20 85 -5 11 -11 34 -14 50 -3 17 -10 53 -16 80
-6 28 -16 84 -23 125 -8 41 -16 82 -20 90 -3 8 -8 31 -11 50 -3 19 -10 58 -15
85 -5 28 -17 91 -26 140 -9 50 -20 110 -25 135 -5 25 -14 70 -19 100 -6 30
-18 87 -26 125 -33 145 -30 164 28 189 43 19 92 19 146 0z m2410 -130 c77 -64
35 -184 -64 -184 -69 0 -114 56 -101 124 9 45 56 86 101 86 21 0 45 -9 64 -26z
m-3800 -96 c113 -64 122 -84 170 -398 13 -86 21 -98 53 -83 13 7 50 19 83 28
33 9 69 21 80 25 11 5 58 21 105 36 89 28 124 41 151 54 9 5 34 12 55 16 22 3
44 10 49 14 6 3 30 13 55 20 25 7 50 17 55 21 6 4 26 10 45 13 19 4 44 11 55
16 40 18 176 60 195 60 23 0 32 -13 24 -34 -7 -17 -100 -81 -200 -137 -112
-62 -375 -189 -392 -189 -7 0 -12 -4 -12 -10 0 -5 -6 -10 -14 -10 -8 0 -31 -9
-53 -19 -21 -11 -56 -27 -78 -37 -22 -9 -63 -27 -91 -40 -28 -13 -57 -24 -65
-24 -8 0 -23 -7 -34 -15 -21 -17 -23 -68 -5 -155 5 -25 16 -103 25 -175 8 -71
20 -152 25 -180 5 -27 13 -75 19 -105 37 -213 50 -273 71 -340 5 -14 15 -50
24 -80 9 -30 21 -64 25 -75 5 -11 21 -51 37 -90 45 -114 112 -235 175 -319 33
-43 59 -85 57 -94 -3 -15 -54 -34 -88 -33 -123 4 -248 101 -377 291 -49 72
-127 228 -139 275 -4 17 -10 35 -14 40 -3 6 -12 30 -19 55 -7 25 -17 54 -22
65 -7 18 -12 40 -39 160 -19 84 -32 151 -34 180 -2 17 -6 37 -9 45 -3 8 -8 35
-11 60 -3 25 -10 74 -17 110 -6 36 -13 83 -14 105 -5 65 -26 136 -39 127 -21
-13 -81 -31 -126 -38 -25 -4 -49 -10 -55 -14 -31 -24 -352 -33 -440 -13 -27 7
-75 17 -105 23 -30 6 -59 16 -64 21 -6 5 -17 9 -26 9 -32 0 -70 25 -70 46 0
23 4 24 140 44 30 4 84 13 120 19 36 7 76 14 90 16 31 5 102 21 155 34 88 22
141 33 157 33 10 -1 20 3 23 9 4 5 17 9 30 9 13 0 34 4 47 9 13 5 43 15 67 22
l43 13 -7 75 c-4 42 -8 99 -10 126 -1 28 -5 57 -9 65 -3 8 -8 42 -10 75 -3 33
-9 78 -15 100 -24 96 -24 94 3 129 14 19 36 37 48 39 39 8 109 -4 147 -25z
m-2846 -28 c62 -69 17 -170 -76 -170 -38 0 -49 5 -71 31 -35 42 -41 71 -21
112 33 70 116 83 168 27z m6004 -32 c62 -31 99 -82 152 -211 16 -40 14 -53
-11 -77 -34 -31 -57 -26 -74 18 -47 121 -102 192 -150 192 -73 0 -144 -77
-201 -220 -57 -140 -55 -492 4 -705 27 -99 61 -172 96 -208 35 -35 40 -37 55
-23 10 8 22 34 29 58 15 57 36 298 28 329 -3 13 -10 78 -16 144 -5 66 -12 143
-15 172 -4 37 -1 58 10 76 35 53 177 97 247 75 64 -19 81 -43 123 -173 20 -66
42 -128 47 -137 5 -10 9 -25 9 -33 0 -8 4 -23 9 -33 5 -9 17 -39 27 -67 28
-83 90 -209 111 -228 19 -16 20 -16 31 5 21 44 48 358 59 689 5 157 8 190 24
210 17 23 18 23 38 5 19 -18 20 -27 15 -300 -3 -154 -9 -298 -15 -319 -5 -20
-7 -42 -4 -47 6 -9 -9 -116 -24 -180 -5 -19 -14 -57 -21 -85 -17 -76 -56 -147
-93 -171 -41 -26 -116 -26 -172 1 -58 29 -154 131 -220 234 -55 86 -74 107
-76 79 -8 -157 -32 -260 -77 -327 -26 -38 -82 -90 -82 -76 0 4 -6 3 -13 -3 -7
-6 -53 -12 -102 -12 -78 -1 -97 2 -140 24 -60 30 -79 47 -125 106 -73 93 -126
233 -148 390 -6 46 -6 325 0 370 16 117 73 249 139 324 45 51 131 106 166 106
12 0 24 4 27 9 3 5 18 11 33 14 16 3 53 11 83 19 77 19 162 14 217 -14z m817
-250 c14 -22 -12 -52 -37 -42 -17 6 -23 44 -10 58 11 11 35 3 47 -16z m-5617
-159 c94 -52 117 -106 127 -294 13 -264 38 -452 84 -650 6 -22 15 -65 22 -95
7 -30 16 -64 20 -75 4 -11 13 -38 19 -60 99 -362 226 -638 397 -865 23 -30 45
-66 49 -78 10 -32 -21 -60 -77 -68 -24 -4 -49 -11 -55 -17 -15 -11 -120 0
-128 14 -4 5 -13 9 -21 9 -9 0 -45 21 -80 46 -62 44 -112 102 -178 204 -40 62
-146 274 -146 291 0 8 -4 19 -9 25 -4 5 -21 43 -35 84 -15 41 -32 84 -36 95
-18 40 -40 116 -40 135 0 11 -4 20 -10 20 -5 0 -10 13 -10 28 0 15 -4 32 -8
37 -14 17 -34 84 -27 94 3 5 1 12 -5 16 -5 3 -10 21 -10 40 0 19 -4 36 -9 39
-9 6 -23 84 -22 129 0 15 -4 27 -9 27 -13 0 -13 -140 0 -310 39 -504 42 -539
66 -720 2 -19 13 -105 24 -190 11 -85 24 -181 30 -212 26 -148 34 -184 42
-194 11 -15 0 -44 -17 -44 -8 0 -41 -16 -74 -36 -50 -30 -68 -36 -97 -31 -49
8 -79 30 -109 77 -14 22 -31 40 -39 40 -8 0 -16 7 -20 15 -3 8 -12 15 -19 15
-16 0 -217 195 -217 210 0 5 -8 17 -18 27 -48 47 -212 344 -212 383 0 6 -4 18
-9 28 -10 17 -43 115 -75 221 -9 29 -16 64 -16 77 0 12 -4 25 -9 28 -5 3 -11
23 -14 43 -3 21 -11 63 -17 93 -7 30 -13 66 -15 80 -1 14 -4 32 -8 40 -7 18
-17 96 -21 165 -2 28 -6 57 -10 65 -16 40 -35 173 -26 194 13 35 68 76 101 76
29 0 108 -17 144 -30 11 -5 35 -14 53 -20 43 -17 107 -64 127 -94 20 -30 40
-114 55 -231 6 -49 16 -110 20 -135 5 -25 12 -70 15 -100 7 -60 11 -76 50
-225 31 -116 94 -306 106 -319 5 -6 9 -16 9 -23 0 -16 96 -214 144 -298 27
-47 36 -56 41 -42 4 9 4 25 -1 35 -9 19 -24 161 -28 267 -2 39 -9 96 -15 128
-7 33 -10 79 -6 107 4 28 2 56 -4 68 -16 30 -24 270 -24 722 -1 424 4 543 24
567 8 9 10 50 6 131 -9 200 17 242 150 242 55 0 82 -5 110 -21z m-1529 -251
c28 -28 7 -78 -33 -78 -27 0 -45 18 -45 45 0 27 18 45 45 45 12 0 26 -5 33
-12z m328 -263 c46 -19 70 -72 54 -120 -15 -44 -41 -66 -88 -72 -33 -4 -44 -1
-73 25 -28 25 -34 37 -34 70 0 43 30 86 70 102 28 12 31 12 71 -5z m2010 -299
c64 -33 78 -68 94 -241 16 -160 29 -249 59 -390 31 -146 118 -385 140 -385 5
0 9 34 10 76 0 41 4 81 8 87 4 7 8 48 9 92 1 44 7 112 13 150 10 53 10 88 2
145 -7 41 -13 85 -14 97 -1 12 -5 25 -9 29 -5 4 -8 20 -8 35 0 15 -4 31 -10
34 -15 9 -13 121 3 132 48 39 236 51 294 20 36 -19 63 -63 63 -101 0 -14 4
-45 9 -68 6 -24 17 -79 26 -123 9 -44 20 -91 25 -105 4 -14 16 -52 25 -85 35
-121 47 -152 103 -263 l57 -113 -25 -19 c-29 -22 -114 -34 -173 -25 -103 16
-211 102 -256 206 -13 29 -28 64 -33 76 -6 11 -8 26 -4 31 3 6 2 13 -3 16 -13
9 -20 -29 -32 -194 -18 -224 -18 -222 2 -258 11 -18 19 -38 19 -44 0 -43 -147
-53 -228 -16 -45 21 -133 84 -141 101 -1 4 -11 16 -21 25 -40 39 -98 170 -120
272 -5 19 -15 59 -23 89 -8 30 -13 60 -10 67 2 6 0 15 -6 19 -6 3 -11 24 -11
45 0 21 -4 41 -9 44 -5 3 -11 23 -14 43 -3 21 -10 61 -16 88 -6 28 -17 84 -25
125 -30 148 -34 162 -55 191 -40 54 -18 100 55 112 55 10 198 -1 230 -17z
m-2097 -301 c26 -13 61 -67 61 -94 0 -7 -9 -29 -20 -51 -44 -86 -158 -71 -190
26 -13 39 4 80 46 113 31 25 64 27 103 6z m143 -312 c39 -35 11 -103 -43 -103
-30 0 -59 31 -59 64 0 48 64 73 102 39z"/>
<path d="M4852 3660 c-31 -19 -57 -63 -81 -141 -14 -46 -13 -193 3 -244 10
-36 15 -40 48 -43 26 -2 48 4 75 21 49 31 67 58 82 122 12 51 11 159 -2 171
-4 4 -7 15 -7 25 0 25 -38 87 -60 99 -24 13 -19 13 -58 -10z"/>
<path d="M5053 982 c8 -65 18 -72 107 -72 86 0 107 12 96 55 -5 20 -10 23 -29
16 -22 -8 -144 -8 -150 0 -2 2 -9 13 -16 24 -11 17 -12 14 -8 -23z"/>
</g>
</svg>
