<?xml version="1.0" standalone="no"?>
<!DOCTYPE svg PUBLIC "-//W3C//DTD SVG 20010904//EN"
 "http://www.w3.org/TR/2001/REC-SVG-20010904/DTD/svg10.dtd">
<svg version="1.0" xmlns="http://www.w3.org/2000/svg"
 width="489.000000pt" height="489.000000pt" viewBox="0 0 489.000000 489.000000"
 preserveAspectRatio="xMidYMid meet">
<metadata>
Created by potrace 1.15, written by Peter Selinger 2001-2017
</metadata>
<g transform="translate(0.000000,489.000000) scale(0.100000,-0.100000)"
fill="#000000" stroke="none">
<path d="M2160 4554 c-866 -115 -1599 -741 -1830 -1561 -58 -206 -74 -335 -74
-583 0 -240 10 -325 60 -528 111 -449 389 -868 779 -1173 121 -95 152 -108
162 -69 6 22 29 27 35 9 2 -7 19 -13 37 -14 26 -2 34 2 41 21 11 27 28 31 36
9 12 -29 23 -15 26 32 l3 48 43 3 c24 2 50 -2 58 -9 8 -7 26 -14 40 -15 20 -2
24 2 24 26 0 38 10 43 76 34 43 -5 58 -11 61 -25 3 -12 14 -19 29 -19 22 0 24
4 24 48 0 63 22 94 63 90 32 -3 32 -3 29 -54 -4 -56 10 -77 45 -68 17 5 23 15
25 42 2 26 8 38 21 40 14 3 17 -4 18 -35 0 -21 4 -47 9 -58 8 -19 9 -19 9 1 1
13 9 24 21 27 18 5 20 14 20 85 l0 80 31 11 c18 6 45 11 60 11 25 0 28 4 31
38 l3 37 98 3 97 3 0 -71 0 -70 29 0 c21 0 30 -6 35 -22 l6 -23 15 25 c8 14
14 37 15 53 0 24 4 27 35 27 38 0 95 -24 95 -40 0 -6 14 -10 30 -10 27 0 30 3
30 30 0 29 2 30 44 30 l45 0 5 -43 c3 -23 7 -55 8 -71 2 -16 9 -31 16 -34 9
-3 12 24 12 112 l0 116 40 0 40 0 0 50 0 51 58 -3 c53 -3 57 -5 57 -28 0 -23
4 -24 65 -26 36 -1 74 -4 85 -6 19 -3 20 3 23 115 l3 117 72 0 c43 -1 82 -6
97 -15 14 -8 28 -14 33 -15 4 0 7 36 7 80 0 47 4 80 10 80 7 0 10 -154 10
-441 0 -414 1 -440 18 -437 16 3 17 32 17 441 0 240 3 437 8 437 4 0 7 -198 7
-441 0 -414 1 -440 18 -437 16 3 17 35 22 443 l5 440 5 -440 c5 -409 6 -440
23 -443 16 -3 17 23 17 437 0 287 3 441 10 441 7 0 10 -153 10 -440 0 -384 2
-440 15 -440 13 0 15 56 15 440 0 366 2 440 14 440 7 0 48 -11 91 -25 43 -14
82 -22 86 -18 4 4 9 19 11 33 3 22 14 28 113 57 124 36 153 39 181 18 12 -9
42 -14 82 -15 34 0 63 -1 64 -2 1 -2 4 -90 7 -197 l6 -193 51 73 c450 647 515
1462 173 2164 -108 223 -250 416 -445 605 -343 333 -780 543 -1257 605 -146
19 -452 18 -597 -1z m1010 -259 c0 -18 -5 -25 -20 -25 -15 0 -20 7 -20 25 0
18 5 25 20 25 15 0 20 -7 20 -25z m162 -172 c37 -33 11 -103 -39 -103 -12 0
-32 9 -43 20 -55 55 24 135 82 83z m-373 -93 c114 -32 192 -151 208 -316 8
-85 -22 -179 -89 -281 -80 -121 -312 -344 -495 -476 l-52 -38 -68 41 c-249
152 -457 345 -527 490 -29 61 -31 72 -31 175 1 139 22 199 101 284 69 75 133
105 224 104 112 0 200 -54 272 -166 l31 -48 22 39 c53 93 122 157 202 187 45
16 154 19 202 5z m-1839 -105 c0 -8 -7 -15 -15 -15 -8 0 -15 7 -15 15 0 8 7
15 15 15 8 0 15 -7 15 -15z m2450 -40 c0 -8 -7 -15 -15 -15 -8 0 -15 7 -15 15
0 8 7 15 15 15 8 0 15 -7 15 -15z m290 0 c7 -8 13 -26 13 -40 0 -14 -6 -32
-13 -40 -28 -33 -100 -6 -100 38 0 47 71 77 100 42z m-2546 -26 c23 -18 26
-28 26 -80 0 -33 8 -142 17 -242 22 -235 24 -706 4 -787 -18 -75 -73 -192
-113 -242 -43 -55 -113 -98 -158 -98 -20 0 -39 3 -42 6 -3 3 9 38 27 77 87
192 98 362 59 916 -8 112 -14 243 -14 292 0 88 0 89 35 123 54 55 117 68 159
35z m-440 -121 c32 -45 10 -89 -43 -90 -38 -1 -61 21 -61 58 0 52 74 75 104
32z m-126 -154 c15 -10 22 -25 22 -48 0 -41 -15 -56 -57 -56 -36 0 -53 21 -53
64 0 24 32 56 55 56 6 0 21 -7 33 -16z m3147 -199 c0 -30 -39 -27 -43 3 -3 20
0 23 20 20 15 -2 23 -10 23 -23z m347 -52 c20 -18 24 -73 6 -91 -20 -20 -76
-15 -88 7 -34 65 30 132 82 84z m-3391 -303 c22 -12 27 -78 7 -98 -32 -32 -98
0 -98 46 0 50 46 76 91 52z m3271 -107 c37 -34 15 -93 -35 -93 -42 0 -57 15
-57 57 0 49 54 71 92 36z m-3204 -85 c-4 -27 -33 -36 -42 -13 -8 22 1 35 25
35 15 0 20 -6 17 -22z m-448 -13 c6 -8 10 -29 8 -47 -4 -45 -47 -68 -84 -43
-52 34 -13 123 47 108 10 -3 23 -11 29 -18z m2585 -129 c18 -8 40 -27 48 -43
8 -15 40 -156 72 -313 102 -512 125 -598 196 -730 17 -33 40 -67 50 -76 18
-17 19 -15 19 57 0 101 -34 395 -59 499 -10 47 -40 193 -66 325 l-47 239 22
18 c42 34 127 12 153 -39 8 -15 38 -145 67 -288 92 -460 118 -544 224 -706 69
-104 70 -119 11 -119 -62 0 -183 104 -244 211 l-26 46 4 -129 c4 -155 -5 -178
-70 -178 -80 0 -180 79 -235 185 l-28 53 -34 -69 c-39 -81 -85 -121 -163 -139
-104 -25 -210 11 -293 101 -70 75 -87 124 -93 268 -11 238 43 333 205 363 54
10 63 9 94 -10 56 -35 91 -111 96 -207 3 -67 0 -85 -17 -112 -27 -43 -57 -61
-121 -73 -29 -6 -55 -12 -58 -14 -2 -2 6 -26 18 -53 26 -59 102 -139 147 -154
67 -22 162 57 179 149 4 23 -4 76 -24 160 -34 138 -50 215 -113 542 l-41 214
22 18 c27 22 59 23 105 4z m1377 -73 c39 -35 11 -103 -43 -103 -30 0 -59 31
-59 62 0 25 35 58 62 58 12 0 30 -7 40 -17z m-2171 -64 c44 -31 50 -44 70
-155 10 -59 21 -109 23 -111 2 -2 128 37 281 87 152 51 279 89 282 86 24 -24
-128 -114 -382 -226 -145 -65 -165 -76 -165 -97 0 -54 55 -387 80 -490 31
-122 98 -276 155 -353 19 -26 35 -51 35 -54 0 -4 -11 -11 -25 -16 -57 -22
-149 36 -221 136 -106 148 -147 283 -210 694 l-5 36 -92 -24 c-76 -19 -109
-23 -192 -19 -112 5 -235 38 -235 62 0 8 3 15 8 15 32 0 224 37 345 66 117 29
147 39 147 53 0 35 -29 252 -36 262 -11 18 6 60 29 69 28 11 75 3 108 -21z
m-1653 -1 c7 -7 12 -26 12 -43 0 -40 -16 -55 -57 -55 -35 0 -53 21 -53 62 0
32 18 48 55 48 17 0 36 -5 43 -12z m3459 -28 c36 -22 86 -110 81 -143 -6 -42
-38 -25 -71 38 -26 49 -37 61 -61 63 -39 5 -89 -45 -118 -117 -30 -75 -33
-291 -5 -391 32 -116 72 -179 99 -152 20 20 30 186 18 305 -6 64 -9 126 -5
136 7 23 73 51 119 51 52 0 71 -25 111 -150 41 -125 87 -234 103 -244 5 -3 13
1 16 10 11 27 25 184 32 346 7 163 13 193 36 170 15 -15 14 -260 -2 -392 -27
-217 -80 -287 -179 -236 -35 19 -102 91 -132 144 -29 50 -39 53 -39 10 -1 -86
-39 -182 -81 -203 -36 -19 -122 -19 -157 -1 -116 61 -190 305 -152 507 14 74
65 174 103 203 41 31 149 65 207 65 28 1 57 -7 77 -19z m463 -145 c0 -8 -7
-15 -15 -15 -8 0 -15 7 -15 15 0 8 7 15 15 15 8 0 15 -7 15 -15z m-3214 -94
c41 -25 51 -59 59 -196 20 -347 133 -715 290 -940 61 -88 60 -95 -10 -115
-163 -45 -323 190 -446 655 l-30 110 6 -135 c10 -228 62 -694 90 -805 4 -16
-5 -25 -45 -44 -43 -21 -53 -22 -78 -12 -16 7 -33 21 -38 31 -5 10 -32 36 -60
57 -182 135 -293 386 -354 796 -22 144 -22 148 -4 169 16 17 27 19 68 14 60
-7 134 -42 158 -76 12 -16 25 -74 39 -165 23 -157 47 -260 85 -367 27 -75 123
-273 129 -267 2 2 -6 96 -17 209 -34 344 -29 1018 8 1078 12 18 23 22 67 22
34 0 63 -7 83 -19z m-891 -156 c0 -30 -39 -27 -43 3 -3 20 0 23 20 20 15 -2
23 -10 23 -23z m196 -135 c13 -7 19 -21 19 -43 0 -41 -15 -57 -55 -57 -37 0
-55 16 -55 49 0 49 46 75 91 51z m1122 -161 c20 -5 43 -20 51 -32 7 -12 21
-80 29 -152 9 -71 27 -173 41 -225 24 -93 63 -197 70 -189 2 2 9 78 16 169 11
146 10 172 -4 226 -29 110 -22 125 59 137 50 8 112 -8 124 -31 5 -9 12 -37 16
-62 15 -99 59 -250 97 -329 43 -91 42 -94 -19 -106 -82 -15 -169 42 -207 139
l-24 58 -5 -48 c-16 -137 -18 -205 -7 -219 39 -47 -62 -63 -141 -22 -88 46
-124 128 -184 419 -19 95 -42 186 -50 201 -22 42 -19 55 18 66 44 13 75 13
120 0z m-1173 -189 c22 -22 26 -51 10 -81 -15 -28 -74 -26 -94 3 -21 29 -20
40 5 72 24 31 52 33 79 6z m78 -192 c2 -19 -2 -28 -17 -33 -27 -8 -41 1 -41
29 0 29 9 38 35 34 13 -2 21 -12 23 -30z"/>
<path d="M2786 2099 c-30 -23 -46 -74 -46 -144 0 -75 8 -95 37 -95 79 0 118
106 77 209 -19 49 -35 56 -68 30z"/>
<path d="M2910 556 c0 -25 2 -26 53 -26 57 0 68 5 61 24 -3 7 -22 12 -47 11
-23 0 -48 3 -54 8 -10 7 -13 2 -13 -17z"/>
</g>
</svg>
